<svg width="40" height="40" viewBox="0 0 40 40" fill="none" xmlns="http://www.w3.org/2000/svg">
<g clip-path="url(#clip0_4707_79920)">
<path d="M40 0H0V40H40V0Z" fill="#26D0D3"/>
<mask id="mask0_4707_79920" style="mask-type:luminance" maskUnits="userSpaceOnUse" x="3" y="12" width="34" height="16">
<path d="M36.8001 12.489H3.20007V27.511H36.8001V12.489Z" fill="white"/>
</mask>
<g mask="url(#mask0_4707_79920)">
<path d="M31.8577 16.0323C31.8577 15.9759 31.8577 15.9195 31.8577 15.8624C31.8577 14.8432 31.8577 13.8247 31.8577 12.8054C31.8577 12.6323 31.9444 12.5454 32.1175 12.5449C32.6043 12.5449 33.0911 12.5449 33.5786 12.5449C33.708 12.5449 33.7089 12.5457 33.7089 12.6691C33.7089 15.3353 33.7089 18.0007 33.7089 20.6669C33.7089 20.7872 33.708 20.7888 33.5893 20.7888C33.0887 20.7888 32.5883 20.7895 32.0878 20.7888C31.9651 20.7888 31.9644 20.7872 31.9614 20.6585C31.9591 20.5267 31.9576 20.3949 31.956 20.2632C31.956 20.2327 31.9598 20.2014 31.9423 20.1725C31.8973 20.1831 31.8821 20.2189 31.8615 20.2464C31.5682 20.6372 31.1783 20.8581 30.6968 20.9297C30.3449 20.9815 29.996 20.967 29.6578 20.8634C29.4018 20.7857 29.1656 20.657 28.9577 20.4825C28.525 20.1192 28.2683 19.653 28.1236 19.1121C28.0055 18.6703 27.9849 18.2208 28.0329 17.7744C28.1136 17.0226 28.4237 16.3735 29.0111 15.8769C29.2784 15.6506 29.5846 15.4922 29.9281 15.4229C30.252 15.3573 30.5825 15.3536 30.9033 15.429C31.2598 15.5136 31.5598 15.7078 31.7945 15.9942C31.8083 16.011 31.8181 16.0339 31.8563 16.0323H31.8577ZM31.9583 18.1622C31.9651 17.9116 31.9012 17.6724 31.7557 17.4522C31.5149 17.0881 31.1242 16.9746 30.7227 17.0295C30.5232 17.0569 30.3487 17.1353 30.2017 17.2717C29.8291 17.6183 29.7598 18.1698 29.9183 18.6193C30.0493 18.9887 30.3053 19.2393 30.7105 19.3041C31.0579 19.3597 31.3702 19.2912 31.6254 19.0359C31.8631 18.7983 31.9659 18.5058 31.9591 18.1622H31.9583Z" fill="#FCFDFD"/>
<path d="M23.7219 16.1541C23.9681 15.7511 24.3299 15.5211 24.7717 15.4228C25.0475 15.3618 25.3309 15.3641 25.6127 15.4067C25.9464 15.457 26.2373 15.5904 26.4796 15.8265C26.7066 16.0474 26.8505 16.3163 26.9343 16.6203C27.0143 16.9113 27.0464 17.2069 27.0456 17.5085C27.0425 18.5506 27.0448 19.5927 27.044 20.6348C27.044 20.6577 27.0425 20.6805 27.044 20.7034C27.0487 20.7666 27.0242 20.7909 26.9579 20.7909C26.4072 20.7886 25.8565 20.7886 25.3057 20.7909C25.2341 20.7909 25.2113 20.7651 25.212 20.6957C25.2151 20.4497 25.212 20.2044 25.212 19.9584C25.212 19.2666 25.212 18.575 25.212 17.8833C25.212 17.7279 25.1869 17.5755 25.135 17.4285C25.0398 17.1581 24.8448 17.0187 24.5576 17.0164C24.3733 17.0149 24.1958 17.0339 24.0435 17.1551C23.8934 17.2738 23.8096 17.4331 23.7685 17.6129C23.7364 17.7538 23.7273 17.8993 23.7273 18.0456C23.7303 18.8828 23.7289 19.7199 23.7289 20.5571C23.7289 20.5936 23.7289 20.6302 23.7289 20.666C23.7273 20.7871 23.7273 20.7879 23.61 20.7886C23.4051 20.7895 23.2002 20.7895 22.9952 20.7902C22.6631 20.7902 22.331 20.7909 21.9981 20.7902C21.8846 20.7902 21.8838 20.7895 21.8815 20.6783C21.88 20.5922 21.8808 20.5053 21.8808 20.4192C21.8808 18.8538 21.8808 17.2883 21.8808 15.7237C21.8808 15.5515 21.8405 15.5439 22.0544 15.5439C22.5321 15.5439 23.0105 15.5439 23.4881 15.5447C23.5201 15.5447 23.5521 15.5462 23.5834 15.5447C23.6512 15.5401 23.6755 15.5668 23.6831 15.6376C23.7006 15.809 23.7029 15.9812 23.7189 16.1541H23.7219Z" fill="#FCFDFD"/>
<path d="M20.5157 18.0758C20.6589 18.2822 20.7922 18.4757 20.9263 18.6692C21.0222 18.8071 21.116 18.9464 21.215 19.0821C21.2584 19.1415 21.2492 19.1818 21.2036 19.2368C20.9392 19.5521 20.6276 19.8142 20.2932 20.051C19.8956 20.3329 19.4675 20.5614 19.0104 20.7305C18.5092 20.9156 17.995 20.9994 17.4595 20.9317C16.8554 20.8554 16.3588 20.5835 15.9519 20.1386C15.6701 19.8301 15.4697 19.4699 15.3129 19.0866C15.1338 18.6487 15.0805 18.1855 15.1421 17.7208C15.2191 17.1411 15.485 16.6451 15.9085 16.2384C16.2894 15.8735 16.7412 15.6191 17.2447 15.4805C18.0933 15.2466 18.8657 15.3982 19.5193 16.0175C19.8925 16.371 20.1394 16.8075 20.3267 17.2805C20.3709 17.3917 20.3656 17.3933 20.2674 17.445C19.6122 17.787 18.9578 18.1284 18.3027 18.4704C17.9889 18.6342 17.675 18.7987 17.3612 18.9625C17.2767 19.0067 17.2751 19.0143 17.346 19.0874C17.6484 19.4005 18.0118 19.5102 18.4384 19.4233C18.9434 19.3206 19.3746 19.0691 19.7806 18.7652C20.0213 18.5854 20.2377 18.3797 20.4334 18.152C20.454 18.1284 20.4791 18.1085 20.5141 18.075L20.5157 18.0758ZM16.7892 18.1359C16.815 18.1253 16.8325 18.1207 16.8478 18.1123C17.3536 17.8488 17.8579 17.5822 18.3652 17.3224C18.4368 17.2859 18.4209 17.2515 18.3926 17.2066C18.1939 16.889 17.7581 16.6177 17.346 16.7686C16.9575 16.9103 16.6863 17.1937 16.687 17.6325C16.687 17.8024 16.7274 17.9638 16.7892 18.1359Z" fill="#FCFDFD"/>
<path d="M4.04412 15.5322C4.04412 15.2953 4.03803 15.0683 4.04569 14.8413C4.05861 14.4247 4.13474 14.0201 4.3146 13.6416C4.57584 13.09 5.01464 12.7427 5.59361 12.5819C5.95008 12.4829 6.31873 12.4722 6.6897 12.508C6.97162 12.5355 7.24662 12.5827 7.51468 12.6757C7.64572 12.7214 7.6579 12.7298 7.64194 12.8707C7.61758 13.0778 7.58556 13.2843 7.55973 13.4915C7.53306 13.6987 7.50786 13.9059 7.48507 14.1131C7.47363 14.2152 7.46754 14.2228 7.36852 14.1848C7.18792 14.1153 6.99829 14.0819 6.80929 14.0781C6.52905 14.072 6.2654 14.1306 6.0849 14.3767C5.96909 14.5351 5.91501 14.7179 5.90209 14.9106C5.89065 15.0828 5.89443 15.2565 5.89443 15.4294C5.89443 15.5422 5.896 15.5445 6.0072 15.5452C6.32104 15.5467 6.63562 15.5467 6.94947 15.5452C7.16734 15.5445 7.12618 15.5567 7.12702 15.722C7.12849 16.1089 7.12776 16.4952 7.12702 16.8821C7.12702 17.0169 7.12618 17.0178 6.99367 17.0178C6.67531 17.0178 6.35611 17.0178 6.03765 17.0178C5.89443 17.0178 5.89443 17.0192 5.89443 17.1594C5.89443 18.315 5.89443 19.4706 5.89296 20.6269C5.89296 20.7938 5.91879 20.7945 5.72076 20.7938C5.20657 20.7923 4.69239 20.7938 4.17747 20.7938C4.04412 20.7938 4.04265 20.793 4.04265 20.6597C4.04265 19.4995 4.04265 18.3394 4.04265 17.1793C4.04265 17.1564 4.04034 17.1335 4.04265 17.1107C4.05094 17.0391 4.01819 17.0154 3.94889 17.0162C3.75317 17.0192 3.55734 17.0169 3.36162 17.0169C3.32959 17.0169 3.29757 17.0154 3.26639 17.0169C3.22145 17.0185 3.19855 16.9986 3.19929 16.9522C3.19929 16.934 3.19929 16.9156 3.19929 16.8973C3.19929 16.4875 3.19929 16.0784 3.19929 15.6686C3.19929 15.5483 3.20087 15.5467 3.31889 15.546C3.55503 15.5445 3.79117 15.5536 4.04338 15.5338L4.04412 15.5322Z" fill="#FCFDFD"/>
<path d="M9.89909 16.3773C9.97217 16.2622 10.027 16.1388 10.1039 16.0284C10.4353 15.5462 10.8992 15.3794 11.4644 15.4533C11.5498 15.4647 11.6329 15.4845 11.7159 15.5097C11.792 15.5325 11.8065 15.5706 11.7989 15.6368C11.7867 15.745 11.7715 15.8524 11.7646 15.9621C11.7433 16.279 11.7159 16.5959 11.6892 16.9128C11.6816 17.0034 11.6687 17.0925 11.6579 17.1833C11.6481 17.2708 11.6404 17.2769 11.5559 17.251C11.3144 17.1756 11.0676 17.1444 10.8162 17.1611C10.4635 17.1847 10.1938 17.3714 10.0506 17.7043C9.94855 17.942 9.91579 18.1918 9.91505 18.4478C9.91348 19.1623 9.91432 19.8768 9.91432 20.5914C9.91432 20.6234 9.91432 20.6554 9.91432 20.6866C9.91127 20.7849 9.91043 20.7902 9.81604 20.7902C9.26521 20.7917 8.71448 20.7902 8.16376 20.7917C8.09215 20.7917 8.06474 20.7636 8.06695 20.695C8.06852 20.6356 8.06695 20.5769 8.06695 20.5174C8.06695 18.9154 8.06695 17.3135 8.06695 15.7115C8.06695 15.553 8.03114 15.5446 8.23915 15.5446C8.73968 15.5446 9.24011 15.5409 9.74138 15.5385C9.84418 15.5385 9.86098 15.55 9.86024 15.6536C9.85793 15.8943 9.87011 16.1343 9.89909 16.378V16.3773Z" fill="#FCFDFD"/>
<path d="M15.7683 24.2254C15.8079 24.2185 15.8254 24.1858 15.8476 24.1576C16.0646 23.8803 16.3564 23.7478 16.7015 23.7081C16.9216 23.6823 17.1372 23.6982 17.3497 23.753C17.6111 23.8201 17.819 23.9634 17.9638 24.1949C18.0216 24.2871 18.0422 24.2871 18.107 24.1988C18.3317 23.8932 18.6394 23.7462 19.0104 23.7089C19.2389 23.6853 19.4606 23.7005 19.6838 23.7584C20.0548 23.8544 20.2726 24.0944 20.3786 24.4516C20.4265 24.6139 20.4532 24.7785 20.4532 24.9483C20.4532 25.7352 20.4532 26.5228 20.4532 27.3098C20.4532 27.44 20.4502 27.4423 20.3259 27.4431C20.1485 27.4439 19.9709 27.4431 19.7935 27.4423C19.6716 27.4416 19.6701 27.44 19.6694 27.322C19.6678 27.1902 19.6694 27.0584 19.6694 26.9258C19.6694 26.3386 19.6694 25.7519 19.6694 25.1647C19.6694 25.0374 19.6587 24.9117 19.6282 24.7868C19.5657 24.5316 19.405 24.3785 19.152 24.345C18.6973 24.2848 18.3172 24.4441 18.1869 24.9651C18.148 25.122 18.1351 25.2782 18.1351 25.4374C18.1351 26.0468 18.1351 26.6569 18.1351 27.2663C18.1351 27.2984 18.1337 27.3304 18.1351 27.3616C18.1374 27.4111 18.1176 27.4409 18.0658 27.4409C17.8517 27.4409 17.6377 27.4416 17.4244 27.4416C17.3741 27.4416 17.3497 27.4149 17.3497 27.3646C17.3497 27.3281 17.349 27.2915 17.349 27.2557C17.349 26.5869 17.3475 25.918 17.3497 25.2492C17.3497 25.1121 17.3445 24.9758 17.3162 24.8424C17.2462 24.5118 17.0663 24.3542 16.7373 24.3328C16.6001 24.3236 16.4653 24.3435 16.3351 24.3907C16.0951 24.4768 15.9702 24.6619 15.8978 24.8942C15.827 25.1228 15.8148 25.3589 15.8125 25.5943C15.8079 26.1496 15.8109 26.7049 15.8118 27.2595C15.8118 27.2915 15.8102 27.3235 15.8118 27.3548C15.814 27.4096 15.7919 27.4416 15.7332 27.4416C15.5238 27.4416 15.3143 27.4416 15.1048 27.4416C15.047 27.4416 15.0233 27.4119 15.0257 27.3562C15.0271 27.3243 15.0257 27.2923 15.0257 27.261C15.0257 26.1504 15.0257 25.0405 15.0257 23.9299C15.0257 23.9024 15.0271 23.875 15.0257 23.8483C15.0226 23.7935 15.04 23.7638 15.1018 23.7645C15.2564 23.7661 15.4111 23.7668 15.5657 23.763C15.6389 23.7614 15.6594 23.8064 15.6716 23.8628C15.6929 23.9603 15.7127 24.0586 15.7318 24.156C15.7371 24.1827 15.7386 24.211 15.7683 24.2254Z" fill="#FCFDFD"/>
<path d="M12.6473 18.1597C12.6473 17.3544 12.6473 16.5493 12.6473 15.7442C12.6473 15.7213 12.6473 15.6984 12.6473 15.6756C12.6488 15.5437 12.6503 15.5422 12.7874 15.5422C13.2925 15.5422 13.7976 15.5437 14.3026 15.5437C14.3345 15.5437 14.3666 15.5437 14.3977 15.5437C14.4534 15.5422 14.4838 15.5643 14.4801 15.6245C14.4778 15.6611 14.4801 15.6976 14.4801 15.7334C14.4801 17.3712 14.4801 19.0083 14.4801 20.6461C14.4801 20.6735 14.4801 20.7009 14.4801 20.7276C14.4801 20.7657 14.4625 20.787 14.4229 20.7877C14.3955 20.7877 14.368 20.7877 14.3415 20.7877C13.8272 20.7877 13.313 20.7877 12.7988 20.7886C12.6988 20.7886 12.6485 20.7395 12.648 20.6415C12.648 19.8134 12.648 18.9861 12.648 18.1581L12.6473 18.1597Z" fill="#FCFDFD"/>
<path d="M36.7955 18.1815C36.7955 18.9958 36.7955 19.8102 36.7955 20.6245C36.7955 20.6474 36.7932 20.6703 36.7955 20.693C36.8023 20.7632 36.774 20.7921 36.7024 20.7899C36.589 20.786 36.4747 20.7899 36.3612 20.7899C35.9469 20.7899 35.5332 20.789 35.1188 20.7899C34.9398 20.7899 34.9603 20.7951 34.9603 20.6245C34.9603 20.1012 34.9603 19.5778 34.9603 19.0545C34.9603 17.94 34.9603 16.8248 34.9603 15.7104C34.9603 15.5992 35.0139 15.5437 35.121 15.5443C35.6307 15.5443 36.1403 15.5443 36.6499 15.5443C36.6728 15.5443 36.6956 15.5443 36.7185 15.5443C36.768 15.5428 36.7962 15.5634 36.7955 15.6159C36.7955 15.6524 36.7955 15.6891 36.7955 15.7249C36.7955 16.5438 36.7955 17.3627 36.7955 18.1815Z" fill="#FCFDFD"/>
<path d="M26.4766 24.2239C26.5688 24.1737 26.6191 24.0884 26.6823 24.0236C26.9573 23.7425 27.2994 23.6786 27.668 23.6953C27.863 23.7044 28.0558 23.7379 28.2332 23.8301C28.4434 23.9398 28.6096 24.0936 28.739 24.2925C28.9066 24.5492 28.9843 24.8357 29.027 25.135C29.0956 25.6157 29.0568 26.0873 28.9021 26.5465C28.7757 26.9229 28.5471 27.2215 28.1806 27.3914C27.9224 27.511 27.6437 27.5217 27.3648 27.492C27.0396 27.4569 26.7684 27.3153 26.5482 27.0729C26.469 26.9861 26.4492 26.9914 26.4057 27.1049C26.3768 27.1812 26.3516 27.2589 26.3326 27.338C26.3167 27.4059 26.2839 27.4409 26.2115 27.4409C26.0752 27.4394 25.938 27.4394 25.8016 27.4424C25.7293 27.444 25.7034 27.4096 25.7087 27.3418C25.7103 27.3235 25.7087 27.3053 25.7087 27.287C25.7087 25.6675 25.7087 24.0472 25.7087 22.4277C25.7087 22.3957 25.7095 22.3638 25.7087 22.3325C25.708 22.2875 25.7278 22.2646 25.7735 22.2646C25.9921 22.2646 26.2107 22.2646 26.4286 22.2646C26.4751 22.2646 26.4918 22.2913 26.4918 22.3348C26.4918 22.3577 26.4927 22.3805 26.4927 22.4034C26.4918 22.8581 26.4911 23.3136 26.4888 23.7685C26.4888 23.8728 26.4918 23.9771 26.4675 24.0807C26.4576 24.1234 26.4591 24.1691 26.4735 24.2232L26.4766 24.2239ZM28.2439 25.5411C28.2744 25.3033 28.2195 25.0489 28.1266 24.8074C28.0619 24.6391 27.9598 24.4891 27.7808 24.4053C27.6345 24.3375 27.4836 24.3298 27.329 24.3337C26.923 24.3435 26.635 24.5485 26.5489 24.9834C26.469 25.3894 26.466 25.7955 26.5536 26.1992C26.6244 26.5275 26.7988 26.7705 27.1492 26.8482C27.636 26.9564 28.0055 26.737 28.1464 26.3036C28.2248 26.0613 28.2522 25.8175 28.2439 25.5411Z" fill="#FCFDFD"/>
<path d="M36.6049 26.6535C36.6049 26.8401 36.6035 27.0206 36.6049 27.2019C36.6049 27.2613 36.563 27.2781 36.5219 27.2964C36.3215 27.3856 36.1128 27.4495 35.8958 27.4739C35.5971 27.5074 35.2978 27.5249 34.9983 27.4785C34.3242 27.3733 33.8603 27.0137 33.647 26.3549C33.5304 25.9938 33.5236 25.6259 33.5655 25.251C33.6013 24.9334 33.6942 24.6401 33.8686 24.3727C34.0736 24.0597 34.3554 23.857 34.7188 23.7587C35.0807 23.6612 35.4417 23.6681 35.7937 23.7747C36.1235 23.8746 36.3878 24.0794 36.5661 24.3841C36.7283 24.6622 36.7947 24.9646 36.7931 25.2838C36.7931 25.4155 36.79 25.5473 36.7931 25.6792C36.7954 25.7537 36.7725 25.7858 36.6925 25.7827C36.5607 25.7782 36.429 25.782 36.2964 25.782C35.7053 25.782 35.1134 25.782 34.5223 25.782C34.4949 25.782 34.4675 25.7843 34.4408 25.782C34.376 25.7766 34.3532 25.8033 34.3547 25.8688C34.3563 26.0022 34.376 26.1347 34.4248 26.2558C34.5657 26.6086 34.8049 26.8408 35.2559 26.8782C35.6893 26.914 36.1067 26.8363 36.5067 26.6664C36.531 26.6557 36.5562 26.642 36.6049 26.6527V26.6535ZM35.1858 25.216C35.3861 25.216 35.5857 25.216 35.786 25.216C36.0412 25.216 36.0397 25.2175 36.0039 24.9585C35.9552 24.6036 35.7343 24.3338 35.3313 24.2882C35.0228 24.2531 34.6708 24.3682 34.5117 24.6782C34.4438 24.81 34.4012 24.9456 34.3715 25.0872C34.3479 25.2016 34.36 25.2145 34.4758 25.2152C34.712 25.2168 34.9489 25.2152 35.185 25.2152L35.1858 25.216Z" fill="#FCFDFD"/>
<path d="M21.3326 25.5893C21.3364 25.2176 21.3844 24.8558 21.5619 24.5213C21.7706 24.1282 22.0867 23.8693 22.5225 23.7596C22.9056 23.6636 23.2911 23.6636 23.6674 23.7732C24.0842 23.8951 24.3858 24.1686 24.5862 24.5525C24.7285 24.8261 24.7948 25.1193 24.8078 25.4278C24.8215 25.7569 24.8055 26.0814 24.6988 26.396C24.5024 26.9773 24.1092 27.352 23.5052 27.4671C23.0763 27.5486 22.6474 27.525 22.2421 27.3223C21.9154 27.1585 21.6853 26.9048 21.5307 26.5811C21.3814 26.2689 21.3265 25.9344 21.3326 25.5886V25.5893ZM22.1286 25.5832C22.1233 25.8072 22.1614 26.0281 22.2246 26.2483C22.3336 26.6261 22.5887 26.828 22.9658 26.8683C23.3513 26.9095 23.7291 26.7678 23.8906 26.3374C24.0102 26.0197 24.027 25.6922 24.0004 25.3585C23.9851 25.1727 23.9554 24.989 23.8754 24.8184C23.7992 24.6554 23.6971 24.5122 23.5303 24.4315C23.3056 24.3225 23.0694 24.3058 22.8257 24.3552C22.5202 24.4177 22.3329 24.6105 22.2337 24.8961C22.1576 25.1163 22.1211 25.344 22.1279 25.5825L22.1286 25.5832Z" fill="#FCFDFD"/>
<path d="M32.6396 24.8434V27.259C32.6396 27.2909 32.638 27.323 32.6396 27.3541C32.6433 27.4105 32.6197 27.4418 32.5626 27.4418C32.3485 27.4418 32.1352 27.4418 31.9212 27.4402C31.8778 27.4402 31.8549 27.4159 31.8549 27.3717C31.8549 27.3398 31.8542 27.3077 31.8542 27.2765C31.8542 25.657 31.8542 24.0382 31.8534 22.4187C31.8534 22.3958 31.8556 22.3731 31.8534 22.3502C31.8488 22.2839 31.8831 22.2641 31.944 22.2641C32.1399 22.2656 32.3356 22.2633 32.5306 22.2641C32.6349 22.2648 32.6373 22.2678 32.638 22.3722C32.6387 22.7676 32.638 23.1637 32.638 23.559C32.638 23.9864 32.638 24.4146 32.638 24.8419L32.6396 24.8434Z" fill="#FCFDFD"/>
<path d="M14.481 13.7971C14.481 14.0653 14.481 14.3334 14.481 14.6016C14.481 14.7036 14.4787 14.7059 14.3752 14.7059C13.8343 14.7059 13.2935 14.7067 12.7526 14.7059C12.6475 14.7059 12.6452 14.7036 12.6452 14.6016C12.6445 14.0607 12.6452 13.5206 12.6452 12.9797C12.6452 12.8671 12.6475 12.8655 12.7587 12.8647C13.295 12.8647 13.8313 12.8647 14.3675 12.8647C14.4796 12.8647 14.481 12.8671 14.481 12.9783C14.4819 13.2509 14.481 13.5236 14.481 13.7956V13.7971Z" fill="#023B38"/>
<path d="M36.8003 13.7974C36.8003 14.0609 36.8003 14.3245 36.8003 14.588C36.8003 14.7039 36.7988 14.7062 36.6921 14.7062C36.1513 14.7069 35.6104 14.7062 35.0696 14.7062C34.9637 14.7062 34.9614 14.7039 34.9614 14.6025C34.9607 14.0617 34.9607 13.5208 34.9614 12.98C34.9614 12.8688 34.9637 12.8657 35.0757 12.8657C35.612 12.8657 36.1482 12.8657 36.6846 12.8665C36.7972 12.8665 36.7996 12.8688 36.8003 12.9792C36.8019 13.2519 36.8003 13.5246 36.8003 13.7974Z" fill="#023B38"/>
<path d="M29.9646 25.602C29.9646 25.0521 29.9646 24.5021 29.9646 23.9521C29.9646 23.9109 29.9669 23.8705 29.9661 23.8294C29.9661 23.7829 29.989 23.7639 30.0331 23.7639C30.2426 23.7639 30.4513 23.7647 30.6608 23.7639C30.7127 23.7639 30.7363 23.7906 30.7416 23.8363C30.7462 23.8766 30.7469 23.9177 30.7469 23.9589C30.7469 25.068 30.7469 26.1771 30.7469 27.2864C30.7469 27.3138 30.7469 27.3412 30.7469 27.3678C30.7462 27.4173 30.7241 27.4448 30.6708 27.4386C30.4757 27.4173 30.28 27.4348 30.085 27.4295C29.9661 27.4264 29.9646 27.4264 29.9646 27.3061C29.9646 26.7378 29.9646 26.1696 29.9646 25.6013V25.602Z" fill="#FCFDFD"/>
<path d="M30.3546 23.216C30.0742 23.216 29.912 23.0538 29.9136 22.7773C29.9158 22.5008 30.0765 22.3469 30.363 22.3491C30.6478 22.3515 30.788 22.5183 30.7934 22.7865C30.7987 23.0493 30.6197 23.2169 30.3546 23.2169V23.216Z" fill="#FCFDFD"/>
</g>
</g>
<defs>
<clipPath id="clip0_4707_79920">
<rect width="40" height="40" rx="20" fill="white"/>
</clipPath>
</defs>
</svg>
