<svg width="40" height="40" viewBox="0 0 40 40" fill="none" xmlns="http://www.w3.org/2000/svg">
<g clip-path="url(#clip0_4707_79878)">
<path d="M40 0H0V40H40V0Z" fill="#E10A0A"/>
<mask id="mask0_4707_79878" style="mask-type:luminance" maskUnits="userSpaceOnUse" x="7" y="5" width="26" height="30">
<path d="M32.5996 5.3457H7.3996V34.6544H32.5996V5.3457Z" fill="white"/>
</mask>
<g mask="url(#mask0_4707_79878)">
<path d="M7.40388 17.1811C7.40388 13.9061 7.40338 10.6317 7.40502 7.35667C7.40502 7.06699 7.40716 6.77568 7.43236 6.48701C7.48868 5.83673 7.99457 5.34735 8.64649 5.34571C8.97056 5.3452 9.29514 5.39346 9.61871 5.42572C10.0356 5.46641 10.4525 5.51203 10.8689 5.55713C11.3206 5.60653 11.7718 5.65957 12.2236 5.70733C12.6228 5.74979 13.022 5.78406 13.4211 5.82652C13.8509 5.87213 14.2807 5.92304 14.7104 5.96978C15.1 6.01212 15.4894 6.05231 15.8795 6.09213C16.2787 6.13232 16.6779 6.16987 17.077 6.21007C17.3958 6.24232 17.714 6.27609 18.0321 6.31099C18.4393 6.35547 18.8466 6.40222 19.2543 6.44619C19.6707 6.4913 20.0875 6.53313 20.504 6.57761C20.9295 6.62272 21.3543 6.66934 21.7793 6.71495C22.1822 6.75842 22.5857 6.80138 22.9892 6.84372C23.4501 6.8921 23.9115 6.93986 24.3723 6.98749C24.7759 7.02944 25.1788 7.07077 25.5823 7.11412C26.0121 7.16036 26.4412 7.21025 26.8715 7.25587C27.2794 7.29934 27.6876 7.33789 28.0948 7.38187C28.5332 7.42912 28.9716 7.48015 29.4099 7.5279C29.6315 7.55197 29.8536 7.57024 30.0757 7.59493C30.3365 7.62391 30.5967 7.65718 30.8569 7.68716C31.0603 7.71085 31.2636 7.73756 31.4675 7.75268C31.7669 7.7741 32.046 7.86911 32.2622 8.06655C32.3893 8.18247 32.467 8.36756 32.5298 8.53489C32.5818 8.67337 32.597 8.83213 32.597 8.98244C32.6001 13.6868 32.6001 18.3916 32.5975 23.096C32.5975 23.4592 32.4972 23.7924 32.2192 24.0504C32.018 24.2371 31.7675 24.3246 31.5088 24.374C30.9229 24.4856 30.3339 24.579 29.7458 24.6783C29.1486 24.7791 28.551 24.8751 27.9542 24.9781C27.5422 25.0495 27.1318 25.1316 26.7202 25.2051C26.3431 25.2727 25.9648 25.3338 25.5871 25.4004C25.0081 25.5018 24.4298 25.6064 23.8509 25.7068C23.5874 25.7523 23.3218 25.7867 23.0584 25.8323C22.6195 25.9085 22.1817 25.9917 21.7428 26.0673C21.1505 26.1697 20.5577 26.2664 19.9652 26.3683C19.5398 26.4418 19.1153 26.5223 18.69 26.5957C17.9704 26.7192 17.2504 26.8366 16.5314 26.9623C16.0883 27.0395 15.6472 27.1302 15.2045 27.2096C14.8585 27.2718 14.5103 27.3244 14.1637 27.384C13.5842 27.4838 13.0058 27.5867 12.4264 27.6865C12.1629 27.7316 11.8989 27.7708 11.6356 27.8159C11.3023 27.8732 10.9697 27.9371 10.6365 27.994C9.99595 28.1029 9.35638 28.2194 8.71352 28.3127C8.22905 28.3835 7.75 28.0852 7.54551 27.6361C7.44307 27.413 7.3996 27.1844 7.3996 26.9386C7.40224 23.6861 7.40124 20.4337 7.40124 17.1811H7.40338H7.40388ZM21.6038 17.3519C21.6124 17.4645 21.6145 17.5439 21.6253 17.6228C21.644 17.758 21.6178 17.868 21.4895 17.9426C21.4166 17.9849 21.3517 18.0407 21.2835 18.0911C20.6005 18.6009 19.911 19.1015 19.2372 19.623C18.7822 19.9749 18.346 20.351 17.9088 20.725C17.4816 21.0909 17.0567 21.4601 16.6457 21.8431C16.3951 22.0765 16.1613 22.3309 15.9396 22.5916C15.7695 22.7918 15.8586 23.0874 16.0985 23.1969C16.3072 23.2924 16.4606 23.2661 16.6425 23.0826C16.9505 22.7724 17.2557 22.4602 17.5546 22.1415C17.9844 21.6827 18.4158 21.2251 18.9019 20.8253C19.6777 20.1879 20.4584 19.5565 21.2396 18.926C21.3474 18.839 21.4713 18.7715 21.606 18.6834C21.614 18.7442 21.6205 18.7694 21.6205 18.7946C21.6178 19.505 21.6173 20.2153 21.6108 20.9257C21.6071 21.3409 21.5808 21.7557 21.5862 22.1705C21.5915 22.5524 21.5116 22.9351 21.6086 23.3181C21.6988 23.6722 21.9709 23.7425 22.2869 23.6512C22.4693 23.5987 22.5364 23.4297 22.5492 23.2655C22.561 23.1185 22.5154 22.9667 22.4929 22.8175C22.4912 22.8078 22.4655 22.802 22.4639 22.7923C22.4527 22.7274 22.4145 22.641 22.4425 22.6001C22.5235 22.4811 22.457 22.3953 22.4124 22.2976C22.3915 22.2515 22.371 22.2021 22.3651 22.1522C22.3508 22.032 22.3463 21.9108 22.3351 21.7906C22.3297 21.7379 22.3104 21.6865 22.3078 21.6345C22.2986 21.4552 22.2922 21.2755 22.2879 21.0957C22.2842 20.9493 22.2805 20.8023 22.2857 20.6563C22.2965 20.3757 22.3196 20.0956 22.3271 19.815C22.3411 19.2983 22.3458 18.7817 22.3608 18.2655C22.3625 18.214 22.3915 18.1496 22.4295 18.1158C22.5433 18.016 22.6619 17.9195 22.789 17.8378C23.3036 17.5085 23.8132 17.1704 24.3413 16.8641C25.0972 16.4253 25.865 16.0067 26.6327 15.5888C27.1832 15.2894 27.7638 15.0603 28.3657 14.8848C28.6679 14.7968 28.9174 14.6343 29.0536 14.3338C29.1379 14.1482 29.0327 13.9646 28.8359 13.9196C28.5783 13.8605 28.3647 13.9539 28.1474 14.0677C27.9468 14.1729 27.7402 14.2678 27.5325 14.3595C27.4306 14.4046 27.3378 14.3574 27.2954 14.2651C27.2445 14.1541 27.1994 14.0328 27.1892 13.9126C27.172 13.7056 27.202 13.4946 27.179 13.2886C27.1447 12.978 27.2889 12.6721 27.1929 12.3625C27.1875 12.3449 27.2079 12.3207 27.2101 12.2993C27.2251 12.1334 27.2084 11.9709 27.1028 11.8374C27.0024 11.7101 26.8002 11.6887 26.6075 11.7568C26.3656 11.8421 26.2074 12.0315 26.0254 12.1962C25.9363 12.2767 25.8103 12.3314 25.6916 12.3594C25.5866 12.3841 25.468 12.348 25.3564 12.3518C25.0661 12.362 24.8096 12.5896 24.7769 12.8717C24.7512 13.0928 24.7383 13.316 24.7243 13.5381C24.7136 13.7163 24.7099 13.8949 24.7034 14.0731C24.6906 14.4255 24.675 14.7781 24.6675 15.1305C24.6647 15.2642 24.7334 15.335 24.8612 15.3388C25.1369 15.3473 25.4143 15.1231 25.4562 14.8532C25.5029 14.5527 25.498 14.2437 25.5141 13.9389C25.5217 13.7978 25.5168 13.6557 25.5319 13.515C25.5683 13.1798 25.7121 12.8964 25.9556 12.6614C26.0678 12.553 26.24 12.4924 26.3576 12.5418C26.5056 12.6046 26.4923 12.7376 26.488 12.8631C26.4707 13.3846 26.4526 13.9056 26.4332 14.4267C26.4284 14.5516 26.4628 14.6562 26.569 14.7292C26.666 14.7963 26.6377 14.8484 26.5524 14.8971C26.3742 14.9986 26.1965 15.1021 26.0185 15.2036C25.6809 15.3956 25.3435 15.5871 25.0049 15.7776C24.6433 15.981 24.2741 16.172 23.919 16.3861C23.4458 16.6715 22.9828 16.9735 22.5149 17.2686C22.4354 17.3186 22.3867 17.3084 22.3904 17.2032C22.3952 17.0561 22.4 16.9097 22.4086 16.7627C22.4408 16.2245 22.4751 15.6864 22.5074 15.1478C22.5304 14.7566 22.5503 14.3654 22.5728 13.9743C22.5803 13.8445 22.5149 13.7764 22.3952 13.7452C22.1253 13.6749 21.8818 13.8316 21.8538 14.1057C21.7879 14.7662 21.7326 15.4278 21.6634 16.0877C21.6387 16.3248 21.621 16.57 21.4257 16.752C21.3002 16.8689 21.1505 16.9269 20.9975 16.8658C20.8468 16.8057 20.8318 16.6425 20.8366 16.4966C20.8441 16.2787 20.8806 16.0604 20.8747 15.843C20.864 15.4643 21.0029 15.1385 21.1971 14.8301C21.2932 14.6783 21.4482 14.5645 21.4649 14.3638C21.4798 14.183 21.4107 14.1133 21.2304 14.1541C21.0142 14.2029 20.8312 14.3209 20.6886 14.4813C20.4487 14.7501 20.2571 15.0511 20.2018 15.4192C20.1568 15.7223 20.093 16.0245 20.0726 16.3298C20.0549 16.5947 20.078 16.8636 20.0978 17.1297C20.1241 17.4854 20.3698 17.7086 20.725 17.6732C20.9837 17.6475 21.2374 17.6029 21.4531 17.4398C21.4907 17.4113 21.5347 17.3916 21.6038 17.3512V17.3519ZM14.7303 18.8563C14.7174 18.8584 14.7046 18.8611 14.6916 18.8632C14.6745 18.8348 14.6461 18.8079 14.6423 18.7779C14.6181 18.581 14.6139 18.3798 14.5747 18.1861C14.5383 18.0058 14.506 17.8336 14.5093 17.6437C14.5136 17.422 14.4288 17.1994 14.3853 16.9763C14.3059 16.5712 14.227 16.1656 14.1513 15.7599C14.0612 15.2782 13.977 14.7952 13.8863 14.3134C13.8488 14.1122 13.7065 13.985 13.5252 13.9776C13.3111 13.9689 13.1481 14.0912 13.0842 14.2925C12.9013 14.8703 12.7193 15.4488 12.5262 16.0233C12.3717 16.4831 12.2006 16.9376 12.0385 17.3952C11.9778 17.5664 12.0348 17.7188 12.1764 17.7822C12.3556 17.8625 12.5713 17.8074 12.6399 17.6437C12.7601 17.3567 12.8609 17.0616 12.9764 16.7724C13.0552 16.5743 13.1422 16.3797 13.2285 16.1849C13.2634 16.106 13.323 16.1055 13.376 16.1639C13.4104 16.202 13.4426 16.2509 13.4539 16.3001C13.4888 16.451 13.5177 16.6033 13.5413 16.7563C13.6229 17.2837 13.7022 17.8116 13.7806 18.3396C13.8203 18.6083 13.8536 18.8782 13.8933 19.1476C13.9459 19.5033 13.9995 19.8595 14.0579 20.2142C14.0826 20.3634 14.1246 20.5098 14.1513 20.659C14.2292 21.084 14.2983 21.5105 14.3815 21.9349C14.4298 22.1812 14.6815 22.2836 14.8843 22.1334C14.9653 22.0733 15.0377 21.9617 15.0555 21.863C15.1391 21.3979 15.2067 20.9294 15.2727 20.4615C15.3549 19.8756 15.4278 19.2887 15.5093 18.7028C15.5217 18.6159 15.564 18.5344 15.5839 18.4479C15.6027 18.3674 15.6172 18.2849 15.6225 18.2022C15.6295 18.0885 15.6161 17.9732 15.629 17.8604C15.6462 17.7107 15.6816 17.5638 15.7068 17.4151C15.7502 17.1592 15.7883 16.9022 15.8366 16.6473C15.8764 16.4381 15.9235 16.23 15.9762 16.0238C16.0668 15.6703 16.1537 15.3157 16.2621 14.9674C16.3576 14.6605 16.5272 14.3799 16.5486 14.0463C16.5578 13.904 16.6329 13.7667 16.6736 13.6255C16.7482 13.3648 16.8045 13.0976 16.8952 12.8427C17.0819 12.3185 17.2815 11.7992 17.4849 11.2814C17.6731 10.8029 17.8867 10.3356 18.236 9.9471C18.3863 9.77965 18.5612 9.63853 18.6712 9.43201C18.8064 9.17875 18.7774 8.95447 18.6411 8.73561C18.5128 8.5296 18.235 8.43938 17.9898 8.50377C17.7461 8.56765 17.5771 8.74582 17.487 8.95498C17.2181 9.5812 16.9772 10.2196 16.7337 10.8559C16.584 11.2472 16.4478 11.6436 16.3088 12.0391C16.2143 12.3078 16.1145 12.5756 16.0356 12.8493C15.8902 13.3546 15.7572 13.8633 15.622 14.3713C15.511 14.7893 15.3875 15.2046 15.2984 15.6274C15.1864 16.1628 15.1 16.7037 15.0099 17.2434C14.9315 17.714 14.865 18.1861 14.7899 18.6572C14.7792 18.7254 14.7485 18.7908 14.7276 18.8573L14.7303 18.8563ZM18.0713 18.0718C18.0746 18.0718 18.0777 18.0718 18.0804 18.0718C18.0804 18.1212 18.0751 18.1706 18.0815 18.2189C18.111 18.4512 18.2381 18.5247 18.4576 18.442C18.7629 18.3267 18.9185 18.1127 18.9271 17.7822C18.9362 17.4258 18.948 17.0685 18.9823 16.7138C19.0199 16.3291 19.1502 15.9848 19.5038 15.7658C19.5864 15.7149 19.6589 15.6451 19.7266 15.5748C19.8402 15.4573 19.843 15.2759 19.7297 15.1198C19.6368 14.9916 19.5156 15.0527 19.403 15.0924C19.3654 15.1059 19.331 15.129 19.293 15.1418C19.154 15.1879 19.0167 15.2411 18.875 15.2732C18.4629 15.3671 18.2671 15.4987 18.2243 15.9327C18.2167 16.0078 18.2113 16.0834 18.207 16.159C18.1941 16.3952 18.1866 16.6313 18.1689 16.8673C18.1395 17.2692 18.1034 17.6705 18.0708 18.0718H18.0713ZM17.4972 16.5116C17.4897 16.5111 17.4827 16.5099 17.4752 16.5094C17.4752 16.4113 17.4806 16.3131 17.4742 16.2155C17.4633 16.063 17.3851 15.9955 17.2348 16.0185C16.9998 16.0544 16.8469 16.2079 16.7353 16.4054C16.5968 16.6495 16.6232 16.9257 16.6006 17.1898C16.5571 17.6867 16.5277 18.1851 16.5008 18.6834C16.4918 18.8563 16.5008 19.0312 16.5191 19.2034C16.5239 19.2506 16.5818 19.3171 16.628 19.3306C16.8152 19.3853 17.1817 19.1562 17.2079 18.9598C17.2659 18.5285 17.3072 18.0949 17.3561 17.6625C17.3802 17.4462 17.4055 17.2305 17.4317 17.0148C17.4521 16.847 17.4752 16.6795 17.4972 16.5121V16.5116ZM23.1399 15.7793C23.1362 16.0395 23.2687 16.1302 23.4763 16.0292C23.5799 15.9793 23.677 15.9138 23.7709 15.8473C23.8911 15.7626 23.9206 15.6332 23.9254 15.4937C23.9313 15.3027 23.9372 15.1117 23.9517 14.9218C23.9624 14.785 24.0102 14.6488 24.0032 14.5141C23.9828 14.1164 23.9985 13.7232 24.0627 13.3299C24.0988 13.1121 23.9657 12.979 23.7763 13.0225C23.7388 13.0311 23.7011 13.0515 23.67 13.075C23.5096 13.1936 23.3969 13.3461 23.3717 13.5483C23.3288 13.8928 23.2902 14.2383 23.2548 14.5838C23.2128 14.9916 23.1759 15.3999 23.1394 15.7798L23.1399 15.7793ZM17.6629 14.1331C17.4398 14.168 17.2756 14.3 17.1554 14.4808C17.1012 14.5619 17.0669 14.6686 17.0604 14.7662C17.0487 14.9342 17.2021 15.0286 17.3469 14.946C17.4735 14.8741 17.5964 14.7904 17.7054 14.6944C17.8078 14.6042 17.8727 14.4803 17.8486 14.3376C17.832 14.2404 17.8132 14.1256 17.6629 14.1337V14.1331ZM23.904 12.2075C23.9142 12.2059 23.9528 12.2091 23.984 12.1952C24.1915 12.1045 24.3268 11.9398 24.4024 11.7343C24.4592 11.5798 24.3568 11.4628 24.191 11.4649C23.9646 11.4677 23.6968 11.6827 23.6421 11.906C23.5944 12.1002 23.6802 12.2097 23.904 12.2075Z" fill="white"/>
<path d="M14.2704 33.3372C14.2704 33.6988 14.2666 34.0609 14.2725 34.4225C14.2746 34.5475 14.2366 34.6022 14.1057 34.5969C13.9227 34.5894 13.7391 34.591 13.5562 34.5969C13.4403 34.6001 13.3996 34.5551 13.4001 34.4392C13.4039 33.7824 13.4039 33.1257 13.4001 32.469C13.3984 32.1899 13.2934 31.9539 13.0642 31.7865C12.8104 31.6009 12.5314 31.5848 12.2563 31.7237C11.9857 31.8606 11.8307 32.0901 11.8291 32.4004C11.8248 33.0614 11.8281 33.7229 11.8275 34.3838C11.8275 34.5948 11.827 34.5953 11.6215 34.5958C11.4471 34.5958 11.2727 34.5905 11.0989 34.5974C10.9745 34.6022 10.9369 34.5513 10.9374 34.4316C10.9412 33.7658 10.9396 33.1005 10.9384 32.4346C10.9384 32.0908 10.7459 31.7983 10.4502 31.6873C10.1272 31.566 9.76397 31.6588 9.54561 31.9362C9.44368 32.0656 9.38408 32.2184 9.38522 32.3944C9.39 33.0602 9.38736 33.7256 9.38685 34.3914C9.38685 34.5856 9.37665 34.5958 9.18236 34.5964C8.99462 34.5969 8.80738 34.5953 8.61951 34.5964C8.53421 34.5964 8.47739 34.5625 8.47902 34.4734C8.4886 33.7057 8.45534 32.9342 8.52464 32.1718C8.58789 31.4748 9.02523 31.0086 9.70551 30.8175C10.2903 30.6539 10.8284 30.7665 11.2834 31.1861C11.3629 31.2597 11.4122 31.2628 11.4938 31.1872C11.9778 30.7365 12.5416 30.6555 13.1587 30.8439C13.8197 31.0461 14.3004 31.7409 14.272 32.4405C14.2597 32.7394 14.2699 33.0393 14.2699 33.3387L14.2704 33.3372Z" fill="white"/>
<path d="M20.4834 30.9869C20.6948 30.9182 20.882 30.8474 21.074 30.7969C21.4309 30.7035 21.7872 30.717 22.1413 30.8259C22.8569 31.047 23.305 31.5293 23.4628 32.2515C23.5969 32.8675 23.488 33.4507 23.0705 33.9485C22.548 34.5715 21.8725 34.748 21.0956 34.601C20.3052 34.4513 19.7107 33.7886 19.6164 33.0193C19.5964 32.8561 19.575 32.6919 19.5745 32.5284C19.5707 31.3849 19.5724 30.2416 19.5729 29.0983C19.5729 28.8864 19.6014 28.8584 19.8127 28.8294C19.9801 28.807 20.1474 28.7795 20.3138 28.749C20.4608 28.7222 20.4824 28.7334 20.4829 28.8816C20.4845 29.2432 20.4834 29.6048 20.4834 29.9669C20.4834 30.3055 20.4834 30.6441 20.4834 30.9864V30.9869ZM20.485 32.7086C20.4672 33.4861 21.1862 34.0124 21.9353 33.7409C22.4449 33.5558 22.6559 33.0369 22.6091 32.5665C22.5818 32.2923 22.475 32.0471 22.2566 31.8529C22.0092 31.6329 21.7271 31.5353 21.4078 31.5852C20.815 31.6779 20.4839 32.0905 20.485 32.7081V32.7086Z" fill="white"/>
<path d="M30.3744 32.9632C29.9371 32.9632 29.4993 32.9627 29.0621 32.9632C28.8962 32.9632 28.878 32.9917 28.9392 33.1419C29.1082 33.5567 29.407 33.7541 29.8593 33.7637C30.1791 33.7707 30.4651 33.6945 30.7167 33.4874C30.7628 33.4493 30.8632 33.4358 30.9201 33.4579C31.1106 33.5325 31.2929 33.628 31.478 33.7165C31.6148 33.7819 31.6207 33.8281 31.521 33.9466C31.1583 34.378 30.691 34.5824 30.1341 34.6285C29.6936 34.6646 29.2691 34.6061 28.8915 34.392C28.4111 34.12 28.0958 33.7068 27.9804 33.1483C27.8993 32.7567 27.9107 32.3704 28.0437 32.0022C28.2926 31.3128 28.7815 30.8878 29.5143 30.75C30.0412 30.6512 30.5316 30.7474 30.9785 31.0204C31.4099 31.2849 31.6905 31.6793 31.7935 32.1809C31.8317 32.3666 31.8424 32.5597 31.8509 32.7496C31.8606 32.9589 31.8515 32.9616 31.6471 32.9616C31.2232 32.9616 30.7988 32.9616 30.375 32.9616L30.3744 32.9632ZM30.8466 32.1879C30.75 31.7893 30.3524 31.5553 29.81 31.565C29.4108 31.5719 29.0115 31.8945 28.9746 32.1879H30.8466Z" fill="white"/>
<path d="M18.8811 32.6989C18.9159 33.7759 18.0301 34.6616 16.9103 34.6547C15.8266 34.6477 14.9247 33.8037 14.9633 32.649C14.9992 31.5696 15.7487 30.7459 16.9232 30.7374C18.0365 30.7288 18.9144 31.5867 18.8811 32.6996V32.6989ZM15.8695 32.758C15.8502 33.0488 15.9844 33.3316 16.2391 33.5654C16.648 33.9405 17.3927 33.8837 17.7281 33.4475C17.9529 33.1551 18.0424 32.8369 17.9695 32.4618C17.8236 31.7129 17.0552 31.3539 16.3953 31.7139C16.0165 31.921 15.8647 32.2736 15.8689 32.758H15.8695Z" fill="white"/>
<path d="M27.136 31.095C27.136 32.1981 27.136 33.3013 27.136 34.4038C27.136 34.5867 27.1291 34.5938 26.9493 34.5943C26.7749 34.5948 26.601 34.5895 26.4273 34.5959C26.3038 34.6007 26.2641 34.5508 26.2657 34.4296C26.2716 34.0856 26.2679 33.7418 26.2679 33.3978C26.2679 31.5806 26.2679 29.7628 26.2679 27.9455C26.2679 27.7411 26.2813 27.7298 26.4788 27.6998C26.6375 27.6756 26.7953 27.644 26.9525 27.6129C27.1113 27.5813 27.1355 27.5974 27.1355 27.7588C27.136 28.8705 27.1355 29.9828 27.1355 31.0945L27.136 31.095Z" fill="white"/>
<path d="M25.0991 32.6963C25.0991 33.2726 25.0965 33.8488 25.1013 34.4245C25.1024 34.5523 25.0599 34.6016 24.9318 34.5963C24.7579 34.5887 24.5835 34.5951 24.4091 34.5941C24.2445 34.593 24.2343 34.5839 24.2343 34.4192C24.2343 33.3874 24.2343 32.3557 24.2343 31.3239C24.2343 31.1946 24.2364 31.0647 24.2343 30.9355C24.2326 30.8459 24.2713 30.8057 24.3625 30.8067C24.5723 30.8093 24.7821 30.81 24.9919 30.8067C25.0803 30.8051 25.1034 30.8411 25.1029 30.9274C25.0991 31.5171 25.1008 32.1068 25.1008 32.6958H25.0991V32.6963Z" fill="white"/>
<path d="M25.2053 29.5624C25.2369 29.8796 24.9069 30.1301 24.6505 30.121C24.3361 30.1091 24.0995 29.8699 24.1043 29.5501C24.1086 29.2346 24.349 28.9872 24.6478 28.9905C24.9746 28.9937 25.2069 29.2319 25.2053 29.5629V29.5624Z" fill="white"/>
</g>
</g>
<defs>
<clipPath id="clip0_4707_79878">
<rect width="40" height="40" rx="20" fill="white"/>
</clipPath>
</defs>
</svg>
